<svg width="117" height="28" viewBox="0 0 117 28" fill="none" xmlns="http://www.w3.org/2000/svg">
<path d="M38.012 16.1654C38.012 12.6261 40.6029 10.1934 43.8905 10.1934C45.3476 10.1934 46.5662 10.7815 47.1564 11.4298V10.3334H50.1657V21.9974H47.1564V20.8777C46.5979 21.5242 45.3804 22.1374 43.8905 22.1374C40.6194 22.1374 38.012 19.7193 38.012 16.1654ZM47.1331 16.1654C47.1331 14.1722 45.8182 12.9928 44.1004 12.9928C42.3626 12.9928 40.9745 14.1613 40.9745 16.1654C40.9745 18.1338 42.3885 19.338 44.1004 19.338C45.789 19.338 47.1331 18.1282 47.1331 16.1654ZM51.5944 16.1654C51.5944 12.8057 54.0971 10.1934 57.6364 10.1934C60.2014 10.1934 62.0386 11.4885 62.9318 13.4827L60.2957 14.8357C59.8504 13.628 58.8294 13.0161 57.613 13.0161C55.906 13.0161 54.6038 14.2488 54.6038 16.1654C54.6038 18.072 55.9257 19.2915 57.613 19.2915C58.8459 19.2915 59.8468 18.7131 60.2957 17.4951L62.9318 18.8482C62.0405 20.8386 60.2061 22.1374 57.6364 22.1374C54.0695 22.1374 51.5944 19.4997 51.5944 16.1654ZM67.3057 5.6677V11.5231C68.0758 10.6891 69.1758 10.1934 70.4783 10.1934C73.1717 10.1934 75.0272 11.8617 75.0272 14.999V21.9974H72.0412V15.6988C72.0412 13.9106 71.2791 13.0161 69.7551 13.0161C68.2036 13.0161 67.3057 14.1688 67.3057 15.6988V21.9974H64.3198V5.6677H67.3057ZM76.4675 7.16073C76.4675 6.04251 77.3619 5.20117 78.4038 5.20117C79.4979 5.20117 80.3633 6.06498 80.3633 7.16073C80.3633 8.24567 79.5088 9.12029 78.4038 9.12029C77.3734 9.12029 76.4675 8.28977 76.4675 7.16073ZM79.9201 10.3334V21.9974H76.9341V10.3334H79.9201ZM96.29 10.3334L98.9027 17.8684L101.539 10.3334H104.688L100.396 21.9974H97.4098L93.1174 10.3334H96.29ZM104.501 16.1654C104.501 12.7646 107.125 10.1934 110.45 10.1934C113.884 10.1934 116.375 12.9187 116.375 16.0954C116.375 16.422 116.352 16.7253 116.305 17.0052H107.604C107.808 18.317 108.92 19.4548 110.637 19.4548C111.915 19.4548 112.885 18.8874 113.459 17.9617L115.675 19.7345C114.566 21.2554 112.896 22.1374 110.66 22.1374C107.165 22.1374 104.501 19.5882 104.501 16.1654ZM110.45 12.7828C109.173 12.7828 108.04 13.5429 107.721 14.789H113.156C112.859 13.6614 111.851 12.7828 110.45 12.7828ZM81.4304 16.1654C81.4304 12.7646 84.0544 10.1934 87.379 10.1934C90.8126 10.1934 93.3042 12.9187 93.3042 16.0954C93.3042 16.422 93.2809 16.7253 93.2342 17.0052H84.533C84.7366 18.317 85.8494 19.4548 87.5656 19.4548C88.8436 19.4548 89.8137 18.8874 90.3883 17.9617L92.6044 19.7345C91.4952 21.2554 89.8245 22.1374 87.5889 22.1374C84.0937 22.1374 81.4304 19.5882 81.4304 16.1654ZM87.379 12.7828C86.1019 12.7828 84.9687 13.5429 84.6496 14.789H90.085C89.788 13.6614 88.78 12.7828 87.379 12.7828Z" fill="#3300FF"/>
<path d="M15.0454 1.60294L8.0144 22.0189L11.1436 23.0959L14.632 12.9679C15.3383 10.9168 17.3562 4.4188 17.3562 4.4188C17.3562 4.4188 19.3743 10.9168 20.0806 12.9679L23.2487 22.1667H26.7492L19.667 1.60294C19.3916 0.803269 18.5258 0 17.3562 0C16.1868 0 15.321 0.803269 15.0454 1.60294Z" fill="#1FA1FF"/>
<path d="M25.434 7.52786C24.6123 7.12704 24.271 6.13594 24.6719 5.31405C24.9586 4.72589 25.5479 4.38403 26.161 4.38403C26.4046 4.38403 26.6518 4.43793 26.8856 4.55194L35.0723 8.22382L30.8816 16.1575C30.4808 16.9793 29.4897 17.3206 28.668 16.9198C27.8461 16.519 27.5049 15.5279 27.9057 14.706C28.1486 14.208 29.017 12.9425 29.8421 11.7774L10.0639 18.5881L8.98999 15.4557L28.7683 8.64505C27.3992 8.2346 25.9329 7.77122 25.434 7.52786Z" fill="#3300FF"/>
<path d="M0 22.4838C0 20.0711 1.55686 18.0156 3.72033 17.2704L8.99034 15.4557L10.0642 18.5881L4.79814 20.3999C3.93348 20.6976 3.31086 21.5194 3.31086 22.4838C3.31086 23.6997 4.29998 24.6888 5.51581 24.6888C6.48028 24.6888 7.3082 24.069 7.60611 23.2038L8.06752 21.8645L11.1968 22.9415L10.7355 24.2815C9.99073 26.4445 7.92868 27.9999 5.51581 27.9999C2.47428 27.9999 0 25.5254 0 22.4838Z" fill="url(#paint0_angular_6_2975)"/>
<defs>
<radialGradient id="paint0_angular_6_2975" cx="0" cy="0" r="1" gradientUnits="userSpaceOnUse" gradientTransform="translate(6.05979 21.7278) rotate(71.9209) scale(10.4226 10.8767)">
<stop offset="0.423402" stop-color="#3300FF"/>
<stop offset="0.662511" stop-color="#3300FF"/>
<stop offset="0.785411" stop-color="#1FA1FF"/>
<stop offset="0.98045" stop-color="#1FA1FF"/>
</radialGradient>
</defs>
</svg>
