<svg width="36" height="28" viewBox="0 0 36 28" fill="none" xmlns="http://www.w3.org/2000/svg">
<path d="M15.0454 1.60294L8.0144 22.0189L11.1436 23.0959L14.632 12.9679C15.3383 10.9168 17.3562 4.4188 17.3562 4.4188C17.3562 4.4188 19.3743 10.9168 20.0806 12.9679L23.2487 22.1667H26.7492L19.667 1.60294C19.3916 0.803269 18.5258 0 17.3562 0C16.1868 0 15.321 0.803269 15.0454 1.60294Z" fill="#1FA1FF"/>
<path d="M25.434 7.52786C24.6123 7.12704 24.271 6.13594 24.6719 5.31405C24.9586 4.72589 25.5479 4.38403 26.161 4.38403C26.4046 4.38403 26.6518 4.43793 26.8856 4.55194L35.0723 8.22382L30.8816 16.1575C30.4808 16.9793 29.4897 17.3206 28.668 16.9198C27.8461 16.519 27.5049 15.5279 27.9057 14.706C28.1486 14.208 29.017 12.9425 29.8421 11.7774L10.0639 18.5881L8.98999 15.4557L28.7683 8.64505C27.3992 8.2346 25.9329 7.77122 25.434 7.52786Z" fill="#3300FF"/>
<path d="M0 22.4838C0 20.0711 1.55686 18.0156 3.72033 17.2704L8.99034 15.4557L10.0642 18.5881L4.79814 20.3999C3.93348 20.6976 3.31086 21.5194 3.31086 22.4838C3.31086 23.6997 4.29998 24.6888 5.51581 24.6888C6.48028 24.6888 7.3082 24.069 7.60611 23.2038L8.06752 21.8645L11.1968 22.9415L10.7355 24.2815C9.99073 26.4445 7.92868 27.9999 5.51581 27.9999C2.47428 27.9999 0 25.5254 0 22.4838Z" fill="url(#paint0_angular_6_2977)"/>
<defs>
<radialGradient id="paint0_angular_6_2977" cx="0" cy="0" r="1" gradientUnits="userSpaceOnUse" gradientTransform="translate(6.05979 21.7278) rotate(71.9209) scale(10.4226 10.8767)">
<stop offset="0.423402" stop-color="#3300FF"/>
<stop offset="0.662511" stop-color="#3300FF"/>
<stop offset="0.785411" stop-color="#1FA1FF"/>
<stop offset="0.98045" stop-color="#1FA1FF"/>
</radialGradient>
</defs>
</svg>
