<svg width="128" height="48" viewBox="0 0 128 48" fill="none" xmlns="http://www.w3.org/2000/svg">
<path fill-rule="evenodd" clip-rule="evenodd" d="M6.48956 48C3.03391 47.9954 0.191217 45.1534 0.187347 41.697V6.303C0.191217 2.84657 3.03391 0.00464366 6.48956 0H121.698C125.153 0.00464366 127.996 2.84657 128 6.303V41.697C127.996 45.1534 125.153 47.9954 121.698 48H6.48956Z" fill="#1D252F"/>
<path fill-rule="evenodd" clip-rule="evenodd" d="M6.48957 0.985168C3.57336 0.988264 1.17491 3.38749 1.17181 6.30371V41.6977C1.17491 44.6139 3.57336 47.0132 6.48957 47.0163H43.5157V0.985168H6.48957ZM93.6555 33.0203L94.4442 31.9127C95.0115 32.5048 95.7978 32.8384 96.6182 32.8353C97.4177 32.8353 97.8077 32.463 97.8077 32.0768C97.8077 31.5753 97.1716 31.4313 96.4239 31.2471C95.3056 30.9917 93.8715 30.6876 93.8715 29.125C93.8715 27.9873 94.8559 27.0439 96.465 27.0439C97.5523 27.0439 98.4548 27.372 99.132 27.9966L98.3209 29.0654C97.7737 28.5778 97.064 28.3116 96.3311 28.3193C95.7065 28.3193 95.3574 28.5972 95.3574 29.0058C95.3574 29.4477 95.9843 29.5894 96.7204 29.7643C97.8395 30.0313 99.2844 30.3703 99.2844 31.9182C99.2844 33.1696 98.3928 34.1131 96.547 34.1131C95.2328 34.0999 94.2894 33.6657 93.6555 33.0203ZM87.4238 33.0203L88.2124 31.9127C88.7797 32.5048 89.566 32.8384 90.3864 32.8353C91.1867 32.8353 91.576 32.463 91.576 32.0768C91.576 31.5753 90.9406 31.4313 90.1929 31.2471C89.0738 30.9917 87.6397 30.6876 87.6397 29.125C87.6397 27.9873 88.6241 27.0439 90.2339 27.0439C91.3206 27.0439 92.223 27.372 92.9002 27.9966L92.0945 29.0654C91.5481 28.5778 90.8376 28.3116 90.1047 28.3193C89.4801 28.3193 89.1319 28.5972 89.1319 29.0058C89.1319 29.4477 89.758 29.5894 90.4948 29.7643C91.6131 30.0313 93.0588 30.3703 93.0588 31.9182C93.0588 33.1696 92.1673 34.1131 90.3214 34.1131C89.0088 34.0999 88.0654 33.6657 87.4238 33.0203ZM64.7233 33.0203L65.5127 31.9127C66.08 32.5048 66.8663 32.8384 67.6867 32.8353C68.4862 32.8353 68.8762 32.463 68.8762 32.0768C68.8762 31.5753 68.2401 31.4313 67.4924 31.2471C66.3741 30.9917 64.94 30.6876 64.94 29.125C64.94 27.9873 65.9244 27.0439 67.5335 27.0439C68.6208 27.0439 69.5233 27.372 70.1997 27.9966L69.3886 29.0654C68.8422 28.577 68.1325 28.3108 67.3996 28.3193C66.775 28.3193 66.4259 28.5972 66.4259 29.0058C66.4259 29.4477 67.0505 29.5894 67.7889 29.7643C68.908 30.0313 70.3529 30.3703 70.3529 31.9182C70.3529 33.1696 69.4613 34.1131 67.6155 34.1131C66.3029 34.0999 65.3595 33.6657 64.7233 33.0203ZM57.5899 31.2564V27.1445H59.0812V31.2061C59.0812 32.1589 59.6408 32.8152 60.6903 32.8152C61.7405 32.8152 62.29 32.1589 62.29 31.2061V27.1445H63.7822V31.2471C63.7822 32.949 62.7768 34.1076 60.6957 34.1076C58.6153 34.1076 57.5899 32.9382 57.5899 31.2564ZM79.0087 33.9846L75.7473 29.5243V33.9846H74.2907V27.1445H75.7829L78.953 31.4337V27.1445H80.4088V33.9846H79.0087ZM71.4101 33.9846V27.1445H72.8667V33.9846H71.4101ZM81.839 33.9846V27.1445H86.687V28.4261H83.2956V29.8711H86.6073V31.152H83.2956V32.6998H86.6777V33.9807L81.839 33.9846ZM50.7258 33.9846V27.1445H54.3246C55.6295 27.1445 56.2935 27.9749 56.2935 28.8882C56.2935 29.7496 55.7603 30.3238 55.1148 30.4562C55.8423 30.5684 56.4204 31.2766 56.4204 32.1349C56.4204 33.1603 55.7339 33.9807 54.4306 33.9807L50.7258 33.9846ZM54.9399 31.9329C54.9399 31.5025 54.6318 31.1334 54.0576 31.1334H52.1823V32.7223H54.0576C54.6063 32.7223 54.9399 32.422 54.9399 31.9329ZM54.8075 29.1366V29.1343C54.8075 28.7249 54.4709 28.3882 54.0615 28.3882C54.0437 28.3882 54.0259 28.389 54.0073 28.3905H52.1823V29.8819H54.0073C54.498 29.8819 54.806 29.5747 54.806 29.1436L54.8075 29.1366ZM57.483 18.8207C57.483 16.7194 59.072 15.2784 61.1229 15.2784C62.3171 15.2451 63.43 15.8983 63.9834 16.9563L62.7319 17.5716C62.4216 16.9725 61.8071 16.5887 61.1322 16.5724C59.8923 16.5724 58.9899 17.5251 58.9899 18.8099C58.9899 20.0946 59.8923 21.0473 61.1322 21.0473C61.8102 21.0396 62.4309 20.6565 62.7412 20.0536L63.9849 20.6743C63.4927 21.5249 62.6313 22.353 61.1252 22.353C59.0812 22.353 57.483 20.9243 57.483 18.8207ZM64.6002 18.8207C64.6002 16.7194 66.1891 15.2784 68.2401 15.2784C69.4343 15.2451 70.5472 15.8983 71.1006 16.9563L69.8491 17.5716C69.5372 16.9694 68.918 16.5856 68.2401 16.5724C67.0002 16.5724 66.0978 17.5251 66.0978 18.8099C66.0978 20.0946 67.0002 21.0473 68.2401 21.0473C68.918 21.0396 69.5387 20.6565 69.8491 20.0536L71.1006 20.658C70.6083 21.5078 69.7469 22.336 68.2401 22.336C66.1914 22.353 64.6002 20.9243 64.6002 18.8207ZM75.9114 22.2369L74.5686 19.8129H73.5021V22.2369H72.0463V15.3976H75.2458C76.6706 15.3976 77.5428 16.3302 77.5428 17.6017C77.5428 18.8114 76.7844 19.4662 76.0515 19.6318L77.5893 22.2423L75.9114 22.2369ZM55.4414 22.2369L55.0219 21.0791H52.0887L51.6584 22.2369H49.9967L52.6428 15.3976H54.4678L57.103 22.2369H55.4414ZM107.17 22.2369V15.3976H109.867C112.009 15.3976 113.497 16.7605 113.497 18.823C113.497 20.8856 112.005 22.2369 109.867 22.2369H107.17ZM101.119 22.2369V15.3976H105.967V16.6784H102.575V18.1234H105.884V19.405H102.575V20.9521H105.96V22.233L101.119 22.2369ZM92.199 22.2369V15.3976H93.6555V22.2369H92.199ZM84.7629 22.2369V15.3976H87.4594C89.6016 15.3976 91.0891 16.7605 91.0891 18.823C91.0891 20.8856 89.5978 22.2369 87.4594 22.2369H84.7629ZM78.7123 22.2369V15.3976H83.5602V16.6784H80.1681V18.1234H83.4798V19.405H80.1681V20.9521H83.5525V22.233L78.7123 22.2369ZM96.6592 22.2369V16.6784H94.6586V15.3976H100.114V16.6784H98.1251V22.2369H96.6592ZM112.018 18.823C112.018 17.6126 111.272 16.6807 109.876 16.6807H108.636V20.9545H109.876C111.222 20.9545 112.01 19.9808 112.01 18.8207L112.018 18.823ZM89.6109 18.823C89.6109 17.6126 88.8648 16.6807 87.4687 16.6807H86.228V20.9545H87.4687C88.813 20.9545 89.6032 19.9808 89.6032 18.8207L89.6109 18.823ZM53.5561 16.8518L52.4896 19.7943H54.6226L53.5561 16.8518ZM76.0491 17.6017C76.0491 17.0275 75.6095 16.6784 75.0237 16.6784H73.4967V18.5243H75.0237C75.615 18.5243 76.0491 18.176 76.0491 17.6017Z" fill="white"/>
<path fill-rule="evenodd" clip-rule="evenodd" d="M15.5054 39.546C16.4767 39.9787 16.9542 40.2635 17.14 41.4701C17.4534 43.5767 15.5147 44.377 13.6836 44.377H9.39438V35.1787H13.7207C15.2701 35.1787 16.6888 35.8853 16.6888 37.6174C16.6888 38.4834 16.2391 39.1149 15.5054 39.546ZM24.0946 39.546C25.0652 39.9787 25.5427 40.2635 25.7284 41.4701C26.0419 43.5767 24.1008 44.377 22.272 44.377H17.9828V35.1787H22.3091C23.8586 35.1787 25.2772 35.8853 25.2772 37.6174C25.2772 38.4834 24.8276 39.1149 24.0946 39.546ZM34.3153 41.4716C34.1288 40.265 33.6513 39.9802 32.68 39.5476C33.4144 39.1165 33.8664 38.485 33.8664 37.6174C33.8664 35.8853 32.447 35.1787 30.8976 35.1787H26.5712V44.377H30.8604C32.6893 44.377 34.6303 43.5767 34.3176 41.4701L34.3153 41.4716ZM35.5095 42.1759V42.1581C35.5095 40.9949 36.4661 40.0375 37.6293 40.0375C38.791 40.0375 39.7468 40.9918 39.7499 42.1527V42.1697C39.7499 43.3329 38.7933 44.2903 37.6293 44.2903C36.4684 44.2903 35.5126 43.3368 35.5095 42.1759ZM39.5572 42.1697V42.1527C39.5533 41.0978 38.685 40.231 37.6293 40.231C36.5721 40.231 35.7022 41.1009 35.7022 42.1581V42.1759C35.7061 43.2308 36.5744 44.0968 37.6293 44.0968C38.6865 44.0968 39.5572 43.2269 39.5572 42.1697ZM36.7981 41.0158H37.7741C38.0101 41.0049 38.2423 41.087 38.4187 41.2448C38.5333 41.3547 38.5968 41.5072 38.5944 41.6666V41.6782C38.5944 42.0296 38.3599 42.2401 38.0318 42.3168L38.7059 43.189H38.3073L37.6804 42.3694H37.1239V43.189H36.802L36.7981 41.0158ZM13.8585 42.6387H11.347V40.5413H13.8585C15.7028 40.5413 15.589 42.6387 13.8585 42.6387ZM22.4492 42.6372H19.9409V40.5413H22.4469C24.2897 40.5413 24.1774 42.6387 22.4469 42.6387L22.4492 42.6372ZM28.5293 40.5413V42.6387H31.0353C32.7659 42.6387 32.8781 40.5413 31.0353 40.5413H28.5293ZM37.7408 42.0822C38.0457 42.0822 38.2562 41.9414 38.2562 41.6914V41.6798C38.2562 41.4515 38.0689 41.3052 37.7586 41.3052H37.1201V42.0784L37.7408 42.0822ZM15.5054 39.546L15.5046 39.5453L15.5031 39.5476L15.5054 39.546ZM24.0946 39.546L24.0939 39.5453L24.0915 39.5476L24.0946 39.546ZM11.347 36.9386H13.5992C15.0031 36.9386 15.0534 38.9006 13.6867 38.9006H11.347V36.9386ZM28.5371 36.9371H30.7761C32.1808 36.9371 32.2311 38.8982 30.8643 38.8982H28.5293L28.5371 36.9371ZM19.9432 36.9347H22.19C23.5939 36.9347 23.6442 38.8967 22.2774 38.8967H19.9409L19.9432 36.9347ZM13.5435 31.0636H17.7259L18.4719 33.5991H25.3074L26.0535 31.0636H30.2374L29.6895 29.1984H14.0914L13.5435 31.0636ZM18.6097 16.029L16.5828 18.826C15.5666 20.2261 15.8816 22.7058 17.2692 23.7073L21.0283 26.4207C21.673 26.8866 21.7233 27.3525 21.4176 27.8394L21.964 28.2457L23.8679 25.6096C25.0443 23.9797 24.9421 21.7624 23.1969 20.4931L19.4038 17.7293C18.951 17.3973 18.9023 16.9368 19.1538 16.4245L18.6082 16.0344L18.6097 16.029ZM21.8618 3.68457L18.7049 8.05039C17.2243 10.0975 17.763 13.588 19.7861 15.0793L24.9754 18.8895C26.0272 19.6611 26.1649 21.6285 25.3987 22.6354L25.8391 22.9651L29.4186 17.9306C31.0261 15.6691 30.9332 12.3272 28.4086 10.4945L22.8571 6.46148C22.0801 5.90192 21.6915 4.93759 22.3386 4.02278L21.8618 3.68457Z" fill="#1D252F"/>
</svg>
