<svg width="47" height="48" viewBox="0 0 47 48" fill="none" xmlns="http://www.w3.org/2000/svg">
<g clip-path="url(#clip0_64_349)">
<path d="M0.187378 13.4477L23.4465 0.00402832L46.1874 13.581V18.3062H42.559V35.0112H3.7509V18.3066H0.187378V13.4477ZM23.4448 5.06873L8.47861 13.9872V30.7588H38.0869V13.9872L23.4448 5.06873ZM15.4849 20.3766V16.25H30.9694V20.3766H15.4849ZM15.4849 22.4341H30.9694V26.5607H15.4849V22.4341ZM23.899 47.9971V42.7396H26.6202C28.564 42.7396 29.9246 43.3386 29.9246 45.4685C29.9246 47.5318 28.6938 47.9976 26.5554 47.9976H23.899V47.9971ZM25.3237 43.8687V46.8635H26.49C27.5911 46.8635 28.3689 46.6639 28.3689 45.4659C28.3689 44.4011 27.5266 43.8687 26.6198 43.8687H25.3237ZM38.029 47.9971V42.7396H41.7867C43.2118 42.7396 43.7954 43.2057 43.7954 44.4033C43.7954 45.2686 43.3416 45.6681 42.3699 45.8014L43.8599 47.9976H42.305L40.8151 45.8014H39.4545V47.9976H38.029V47.9971ZM41.586 43.8696H39.448V44.6682H41.5211C42.2336 44.6682 42.4283 44.6682 42.4283 44.2687C42.4283 43.9363 42.1692 43.8696 41.586 43.8696ZM16.1274 42.7396V47.9971H17.488V44.8028L20.2092 47.9971H21.8289V42.7396H20.4683V46.0005L17.7471 42.7396H16.1274ZM2.83806 42.7396V47.9971H7.95643V46.8657L4.26356 46.799V42.7396H2.83806ZM9.38971 47.9971H14.3783V46.8657H10.8797V45.7343H13.7951V44.6695H10.8797V43.871H14.3783V42.7396H9.38971V47.9971ZM31.4838 42.7396V47.9971L36.4075 47.9309V46.8657H32.9089V45.7343H35.8892V44.6695H32.9089V43.871H36.4075V42.7396H31.4838ZM12.9454 41.4055L14.2412 36.6803H15.3426L16.6383 41.4055H15.629L15.3422 40.3407H14.1758L13.889 41.4055H12.9454ZM14.7646 37.6886L14.3761 39.552H15.2185L14.7646 37.6886ZM5.75741 39.6755V38.4108C5.75741 37.2127 6.1459 36.5474 7.31226 36.5474C8.60796 36.5474 8.8671 37.346 8.8671 38.4774V39.476C8.8671 40.075 8.80221 40.3412 8.60796 40.7407L9.38539 41.0069L9.32049 41.3397C6.66462 41.3397 5.75741 41.2731 5.75741 39.6755ZM6.72692 38.477V39.6084C6.72692 40.4736 6.8567 40.7398 7.31009 40.7398C7.82838 40.7398 7.89327 40.5403 7.89327 39.675V38.4103C7.89327 37.4784 7.82881 37.3456 7.37499 37.3456C6.79181 37.3451 6.72692 37.6118 6.72692 38.477ZM32.0618 40.1403C32.0618 40.8722 32.5152 41.4717 33.5517 41.4717C34.3941 41.4717 35.1715 40.8727 35.1715 40.1403C35.1715 39.0089 33.0984 38.4765 33.0984 37.7442C33.0984 37.478 33.3575 37.3451 33.6166 37.3451C34.0051 37.3451 34.1998 37.6113 34.3941 38.0108L35.0421 37.7446C34.9777 37.0789 34.5238 36.5466 33.5522 36.5466C32.7747 36.5466 32.1271 36.9456 32.1271 37.7446C32.1271 39.076 34.2002 39.4084 34.2002 40.2736C34.2002 40.6065 34.006 40.7398 33.6171 40.7398C33.2281 40.7398 32.969 40.4736 32.8396 40.0079L32.0618 40.1403ZM25.0723 39.8741V38.3437C25.0723 37.0789 25.6555 36.5466 26.6272 36.5466C27.8584 36.5466 28.182 37.0123 28.182 38.2103V39.6746C28.182 40.9393 27.858 41.4717 26.6272 41.4717C25.3968 41.4713 25.0723 41.0056 25.0723 39.8741ZM26.0418 38.277V39.7408C26.0418 40.4065 26.1063 40.7394 26.625 40.7394C27.0135 40.7394 27.2082 40.4732 27.2082 39.6746V38.277C27.2082 37.7446 27.1437 37.2785 26.625 37.2785C26.1063 37.2785 26.0418 37.678 26.0418 38.277ZM40.6796 39.6746C40.6796 41.0722 41.0686 41.4717 42.3643 41.4717C43.3671 41.4717 43.66 40.9887 43.66 40.4732V38.9423H42.2994V39.6742H42.7528V40.2065C42.7528 40.6056 42.6234 40.8056 42.2994 40.8056C41.6513 40.8056 41.5869 40.3394 41.5869 39.6742V38.6094C41.5869 37.8108 41.6513 37.2785 42.2994 37.2785C42.7528 37.2785 43.0119 37.6113 43.0768 38.077L43.7245 37.8108C43.66 37.0123 43.1413 36.5461 42.2345 36.5461C40.9388 36.5461 40.6796 37.278 40.6796 38.2766V39.6746ZM28.5701 36.6794V39.408C28.5701 41.0055 28.8366 41.5162 30.1972 41.5162C31.2337 41.5162 31.6149 40.9389 31.6149 39.5413V36.6794H30.7077V39.408C30.7077 40.4727 30.6428 40.7394 30.1245 40.7394C29.6062 40.7394 29.5413 40.3399 29.5413 39.3418V36.6794H28.5701ZM37.1823 36.6803V41.4055H37.9597V38.2108L39.0612 41.4055H40.2276V36.6803H39.4497V39.6084L38.4131 36.6803H37.1823ZM9.78037 36.6794V39.5413C9.78037 40.8722 9.91016 41.4713 11.2059 41.4713C12.6958 41.4713 12.7607 40.7394 12.7607 39.408V36.6794H11.8535V39.4746C11.8535 40.4065 11.7242 40.6727 11.2703 40.6727C10.752 40.6727 10.6872 40.4065 10.6872 39.3418V36.6794H9.78037ZM21.5049 36.6803V41.4055H22.4121V39.276H23.5136V41.4055H24.4204V36.6803H23.5136V38.477H22.4121V36.6803H21.5049ZM2.77966 36.6803V41.4055H5.11236V40.6736H3.68687V39.3422H4.98258V38.6765H3.68687V37.4122H5.11236V36.6803H2.77966ZM17.0324 36.6803V41.4055H19.1705V40.6736H17.8099V36.6803H17.0324ZM35.6353 36.6803H36.4776V41.4055H35.6353V36.6803Z" fill="#1D252F"/>
</g>
<defs>
<clipPath id="clip0_64_349">
<rect width="46" height="48" fill="white" transform="translate(0.187347)"/>
</clipPath>
</defs>
</svg>
